<svg xmlns="http://www.w3.org/2000/svg" width="371.492" height="121.801" viewBox="0 0 371.492 121.801"><g transform="translate(-4533 152)"><g transform="translate(4533 -152)"><rect width="91.75" height="121.746" transform="translate(0 0)" fill="#d62624"/><path d="M535.125,296.54h.275V297h1.731c1.088,0,6.453,2.545,7,3.091.726.726,6.458,2.459,6.458,4.456,2.73,0,8.18,5.82,8.82,5.82,0,.729.908,1.543,1.545,1.91v1.455H559.5a14.032,14.032,0,0,0-2.638-3.91c-1.361,0-3.272-2.636-4.453-3.273-.547-.277-4.548-1.912-4.548-1.912-.275-.091-.457-1-1.27-1.91-.912-.818-9.007-5.637-11.463-5.637Z" transform="translate(-524.127 -291.181)" fill="#fff"/><path d="M555.538,324.445c-1.363,0-3.818.088-3.818-2.549-1,0-4.728-4.09-5.275-4.362-.728-.369-1.637-.457-2.365-.821-1-.634-1.724-1.635-2.635-1.635-.184-2.275-8.187-5.365-8.276-5.365-1.092-1.819-3.729-1.093-5.184-2.731h1.546l6.183,2.824a57.188,57.188,0,0,1,6,3.273c2.364,1.9,3,2.909,3.182,2.909l3.181,1.271,2,2s2.273.457,2.273,1.912c1.547,0,2.364,2.819,3.182,3.276" transform="translate(-519.349 -298.169)" fill="#fff"/><path d="M614.038,351.77c2.822-4.271,2.91-3.455,3.362-4.366h1.548v.637s-2.27,1.546-3.273,2.184v1.361h.549a2.473,2.473,0,0,1,2-2.183c.272,0,.454.276.726.457,0,1.274.275,5.548,2,5.548,0,0,1.458-.547,1.549-.82h1.095c0,1.456-2.644,3-3.822,3-.183,0-3.179-1.362-3.179-4.182h-.365c-.728.637-.366.637-1.094.637l-1-.544Z" transform="translate(-576.94 -325.475)" fill="#fff"/><path d="M644.568,335.308c0-.185,2.089-5.457,10.27-8.731,6.639-2.636,7.642-4.276,8.281-4.639.181-.093,3.087-1.183,3.087-2.637.729,0,4.364-3.55,4.364-4.368.549,0,5.64-4.359,7.277-4.359.455,0,.542.177,1.275.722-9.554,4.728-10.552,8.186-15.734,13.37-2.545,2.456-9.824,4.459-14.914,7-.544.277-3.907,3.642-3.907,3.642" transform="translate(-597.372 -300.574)" fill="#fff"/><path d="M646.759,388.094c4.636,0,7.362,3.184,8.818,4.367a70.731,70.731,0,0,1,5.093,5.183c1.73,1.363,2.815,1.455,5,1.455l2.729.452c.089.276,2,.732,2.276.732-.182,1.544-.182.634,0,1.087l-3.005-.364h-1.817l-4.547-.362c0-.092-2-1.093-7.64-6.819-6-6-6.911-4.276-6.911-5.733" transform="translate(-598.838 -352.873)" fill="#fff"/><path d="M551.629,353.443l1.093-.457a5.107,5.107,0,0,0,2.092-.276h1.909a3.71,3.71,0,0,1,2-.364l3.545,4c.272.365,3.184,3.91,3.455,4.094.183.092,9.821,2.544,9.821,4.182,0,.911-.634,1-1.088,1l-5.183-2.362h-1.73c-.365-.638-2.179-.369-4.367-1.637-.725-.367-.636-1.459-1.725-2.363-.635-.549-2.91-5.642-5.73-5.1l-4,.091Z" transform="translate(-535.172 -328.81)" fill="#fff"/><path d="M535.55,342.131a4.478,4.478,0,0,1-2.453.817c-1,0-2.636-.909-2.636-2.18,0-2,6.549-4,6.731-4.456,2.09,0,4.093-.457,6.183-.457.454.908.454.092.454,1,0,1.454-2.095,1.271-2.457,2h-1.457v-.546c.732,0,.548.27,1.185-.817a4.738,4.738,0,0,0-4.273.273,35.185,35.185,0,0,1-3.73,1.907c0,1.093,1.455,2.183,2.093.912.818,0,2.819,0,3.272-.82h.636v.726c-.728.368-2.364,1.638-3.548,1.638" transform="translate(-521.005 -317.493)" fill="#fff"/><path d="M679.761,348.505h.731v.634a7.291,7.291,0,0,0-2.095,2c-.089.089-4.545,2.275-5,2.732-4.183,4.452-6.819,5.545-12.547,5.545-.37.546-2,.729-3.094,1.635v-.637a27.39,27.39,0,0,0,3.094-2.729s2.724-.545,3.086-1.271c4,0,6.368-.637,9.734-3.456,5.094-4.272,5.725-3.822,6.088-4.456" transform="translate(-606.2 -326.222)" fill="#fff"/><path d="M636.2,347.4h2.186c.542,1.093,3.547,1.271,3.547,3.363,0,.732-1.548,1.458-2,2.456h-2.181c.909-1.088,1.454-.543,1.454-1.637,0-1.361-4.277-2.183-4.277-3.089,0-.545,1-.545,1.273-1.093" transform="translate(-590.918 -325.465)" fill="#fff"/><path d="M684.12,373.8h.539c-3.087,3.545-3.544,2.639-5.088,3.91-3.093,2.548-3.819,3.182-5.547,3l-3.365-.45c-1,0-2.82,0-3.544-.637,1.177-.456,2.813-1.636,4.726-2.276h3c.272.549,2,0,2.821,0,.548-.906,2.361-.906,3.272-1.818,1.361-1.366,2.727-.818,3.187-1.727" transform="translate(-612.461 -343.23)" fill="#fff"/><path d="M611.687,393.6v1.091a3.63,3.63,0,0,0-1.639,2.547,7.467,7.467,0,0,0,2.729,4.181,4.53,4.53,0,0,1,2.092,4.546c.089,1.366-.365,2.275-1.092,4.275l-2,1.09c2-1.724,1.364-4.908.728-6.091s-3.095-3.91-3.913-5.64v-.453c-.544-1.455,1-3.819,3.093-5.547" transform="translate(-573.222 -356.597)" fill="#fff"/><path d="M648.971,412.3h1.092v.548c-.637.272-2.367,3.362-2.367,3.362-.817,3.638.73,2.906.73,3.91a11.651,11.651,0,0,1-1.185,1.908c-2.274-1.818-2.452-4.09-1-6.727,0,0,1.454-2.548,2.729-3" transform="translate(-597.868 -369.147)" fill="#fff"/><path d="M701.969,429.884v.549a3.72,3.72,0,0,0-3.547,3.178c0,1.184.638,4.277,3.273,3.735h1.731c-1,1.819-1,.542-1.458,1.543H697.7l-2-3.91,2.276-4.636c.729-.46,3-.46,4-.46" transform="translate(-631.587 -380.981)" fill="#fff"/><path d="M719.786,433.734c1,0,1.271,1.186,1.814,1.458v2.364a5.07,5.07,0,0,0-1.632,1.091h-2.548c1.727-2.092,1.452-1.275,1.452-2.092,0,0-.273-1.183-.813-1.455v-1.089c1.268,0,1.179-.277,1.727-.277" transform="translate(-646.128 -383.553)" fill="#fff"/><path d="M627.32,447.485H631.6v1.089H628.23c-.727.184-4,.549-5.459.821-1.449,0-4.636.545-5.181,2,1.094.362.455-.095,1.363.451h15.1v.367a5.089,5.089,0,0,1,3.089.817v1.551s-2.092.357-2.272.721h-4.635a13.6,13.6,0,0,1-4,.911h-2.088c-1.276,0-4.456,1.454-5.457,3.092,3.727,0,7.182-1.092,11-1.092a10.46,10.46,0,0,1,2.908,0h5c.275.64,3.455.455,3.455,2.185,0,.726-.456.361-.816,1.183H628.23c-1.544.634-3.179-.092-5.093,2.18,0,1.727.82.817,2,1.181h13.647l4.818.821,5.454,1.455v.725h-3.911l-2.272-.817-5.185-.454c-1.177,0-13.1-.729-12.551-.368-1.635,0-3.086.093-4.272-1.09v-1.908a10.62,10.62,0,0,1,7.639-2.636c1.458-.183,5.269-.455,7.546-.455v-.361l-3.09-.549c-2.911,0-5.362.364-8.272.364a10.406,10.406,0,0,1-4.732.819c-1.451.545-3.908.912-3.908-1.183,0-2.639,6.452-3.725,6.724-4.185,2.822,0,5.459-.815,8.461-.815a3.816,3.816,0,0,1,2.089-.455v-.362l-2.819-.549H619.593c-1.824.549-4.731,1.093-4.731-1.543,0-2,4-2.364,4.365-3.093a57.011,57.011,0,0,0,8.093-.82" transform="translate(-577.491 -392.897)" fill="#fff"/><path d="M638.952,509.626a8.214,8.214,0,0,1,2.362.818h1.821l2.092.456c.18.454,4.276,1.455,4.276,1.455.54.273,2.27.818,1.9,2.092-.272,1.181-2.27,1-6.18,3.545.907,1.638,8.178,1.82,8.178,5,0,1.365-3.181,2.364-4.268,2.364v.365c.906.637,1.178,1.641,2.27,1.641,0,.814,1.275,1.817,1.275,3,0,.361-.457.449-.457,2-1.451,0-.091.368-1.451.368-.551,0-.274.449-.732-.639v-1.909c-.906-.548-1.185-2.55-2.813-2.55,0-1.452-.824-.266-.824-1.907,0-2.364,3.91-.906,3.91-2.818,0-1.543-2.457-.82-7.814-3.545v-1.82s4.819-2.367,5.905-2.367v-.906c-1.453,0-4.092-2.275-6.728-2.275H640.22a8.6,8.6,0,0,1-2.818-.817v-1.09c.729,0,.729-.457,1.55-.457" transform="translate(-592.576 -434.769)" fill="#fff"/><path d="M700.9,517.875c1.089,0,2.095.457,3.459.457.363.542,5.454,1.181,7.09,2.817,0,.092,5.1,2.821,5.1,5.093,0,2-1.913.817-2.544,1.363,0-4.545-11.551-7.637-11.643-7.818l-2.092-.365h-2.092v-.728a16.559,16.559,0,0,1,2.726-.818" transform="translate(-633.248 -440.205)" fill="#fff"/><path d="M665.642,582c.083.909.182,1.086,0,1.455-.462.909-2.733,1.638-2.822,1.907h-5a15.761,15.761,0,0,1-2.825-.089c.367-.457,1.641-.545,2.275-.729.638-.273-.269.272,0,.184l2.184-.549c1.457-.452,2-1,2-2.18,1.27,0,3.09-.549,4.186,0" transform="translate(-604.351 -483.35)" fill="#fff"/><path d="M654.619,595.191v.368h7.186v.452h3.91c.273.542.18.365.818.365v.726h-5v-.451h-8.006v-.458h-12.55v-.634c.912,0,.55.088.821-.368h2.181c.274-.546,9.007,0,10.638,0" transform="translate(-594.97 -492.183)" fill="#fff"/><path d="M647.851,607.513h5.637s1.641,1.271,1.819,1.363l-.359,4.456-.366,9.02h-3.365c0-2.655.183-6.657.364-10.2v-2.637a6.132,6.132,0,0,1-1.636-1.181h-2.638v-.454c.635-.095.362,0,.543-.364" transform="translate(-599.206 -500.592)" fill="#fff"/><path d="M700.22,614.382v.818h-3c-.363.547.087.183-.456.452v9.187l-.546,2.149h-3.269l-.007-2.149.366-9.187a7.968,7.968,0,0,1,4.547-1,8.422,8.422,0,0,1,2.364-.272" transform="translate(-629.747 -505.188)" fill="#fff"/><path d="M677.252,608.614h3.458c0,4.821-.307,14.515-.307,14.515l-3.237-.01s-.183-14.325.087-14.505" transform="translate(-619.147 -501.328)" fill="#fff"/></g><path d="M850.647,438.235h4.564V409.945h-4.568Zm26.9-53.594h-2.26v14.695h2.26Zm49.769,8.728h4.623l2.043,5.967h2.428L931.1,384.641h-2.493l-6.136,14.695h2.5Zm2.419-6.33,1.622,4.489h-3.4Zm153.811,6.33h4.62l2.046,5.967h2.425l-5.309-14.695h-2.489l-6.139,14.695h2.5Zm2.414-6.33,1.625,4.489h-3.4Zm-212.271,43.43-9.365-20.561h-5.94v28.3l4.584.022-.015-20.176,9.162,20.176h6.156V409.861h-4.583Zm-21.033-43.882h5.993v-1.945H850.4v14.695h2.26v-6.5h5.407v-1.948h-5.407Zm158.328-1.945h-2.26v14.695h2.26Zm75.849,25.226-5.333.04-8.454,28.37,4.953-.042,2.664-9.659h7.385l2.821,9.659h4.8Zm-5.182,14.4,2.592-9.833,2.59,9.833Zm-45.368-26.876h-6.4v-4.557h5.746v-1.948h-5.746v-4.3h6.4v-1.945h-8.66v14.695h8.66Zm-47.9,2.177a14.2,14.2,0,0,0,3.333-.429l.181-.039.233-2.245-.395.15a9.453,9.453,0,0,1-3.353.621,4.265,4.265,0,0,1-3.686-1.706A6.682,6.682,0,0,1,983.62,392a6.309,6.309,0,0,1,1.281-4.149,4.38,4.38,0,0,1,3.484-1.5,10.845,10.845,0,0,1,3.345.585l.372.111-.2-2.214-.189-.04a15.957,15.957,0,0,0-3.326-.385,6.734,6.734,0,0,0-5.143,2.1A8,8,0,0,0,981.357,392a7.759,7.759,0,0,0,2.036,5.722A6.921,6.921,0,0,0,988.385,399.569Zm-14.892,30.9-9.357-20.553h-5.943v28.3l4.558.016.014-20.177,9.161,20.177h6.157V409.867h-4.591Zm30.6,7.763h14.625v-4.658h-10.059v-7.414h8.843v-4.226h-8.843v-7.5h10.059v-4.568h-14.625Zm-8.2-26.546c-2.03-1.471-4.818-1.7-7.163-1.782h-7.49l-.014,28.328h7.5c2.345-.084,5.139-.277,7.169-1.746,3.681-2.658,5.055-7.141,5.055-12.57S999.57,414.343,995.889,411.689Zm.386,15.5a9.041,9.041,0,0,1-1.235,3.346c-.982,1.627-2.89,2.913-6.43,2.913h-2.978v-18.97h2.978c3.54,0,5.448,1.534,6.43,3.167a8.562,8.562,0,0,1,1.291,3.76,12.066,12.066,0,0,1,.231,2.59A12.962,12.962,0,0,1,996.275,427.19Zm64.013-35.285a3.818,3.818,0,0,0,1.686-3.414,3.727,3.727,0,0,0-1.158-2.979,4.22,4.22,0,0,0-2.795-.87h-5.1v14.695h2.261V390.9l4.554,8.438h2.659l-4.077-6.742A4.684,4.684,0,0,0,1060.288,391.9Zm-4.527-.854-.581-.161v-4.3h2.655a1.914,1.914,0,0,1,1.2.34,2.633,2.633,0,0,1-.146,3.668,3.16,3.16,0,0,1-1.981.615A4.444,4.444,0,0,1,1055.762,391.05Zm9.531,47.185h4.609V409.867h-4.619ZM896.078,411.689c-2.031-1.467-4.816-1.7-7.164-1.779h-7.49l-.01,28.325h7.492c2.348-.084,5.141-.277,7.172-1.743,3.681-2.661,5.057-7.144,5.057-12.573S899.76,414.343,896.078,411.689Zm.384,15.5a8.7,8.7,0,0,1-1.238,3.346c-.979,1.627-2.884,2.913-6.424,2.913h-2.98v-18.97h2.98c3.54,0,5.444,1.534,6.424,3.167a8.486,8.486,0,0,1,1.3,3.76,12.466,12.466,0,0,1,.229,2.59A12.752,12.752,0,0,1,896.462,427.19Zm140.7,3.273-9.361-20.555h-5.943v28.3l4.555.022.017-20.179,9.16,20.179h6.156V409.861h-4.584Zm20.217,3.8c-4.8-.215-7.922-4.306-7.922-10.354s3.062-10.263,7.773-10.263a14.751,14.751,0,0,1,4.514.817l-.48-4.609a22.377,22.377,0,0,0-5.788-.435c-6.309.423-10.589,6.51-10.589,14.533s4.161,13.532,10.21,14.5c2.7.429,5.1.206,6.624-.659l.42-4.277a10.951,10.951,0,0,1-2.532.723A11.643,11.643,0,0,1,1057.381,434.26Zm-153.1,3.975H918.9V433.58H908.848v-7.417h8.836v-4.226h-8.836v-7.5H918.9v-4.574H904.277Zm1.693-53.594h-2.124v11.4l-7.083-11.4h-2.579v14.695h2.128V388.088l7.044,11.247h2.615Zm31.275,32.529c0-4.011-2.871-7.267-6.414-7.267l-.031-.036h-8.753v28.368h4.57v-23.8h4.459a2.3,2.3,0,0,1,1.637,1.036,4.478,4.478,0,0,1,.577,2.588,4.545,4.545,0,0,1-4.232,4.794,3.776,3.776,0,0,1-1.775-.441l1.015,3.99a5.7,5.7,0,0,0,2.222.447c3.538,0,6.761-3.788,6.761-7.806,0,0,0-.441,0-.729C937.277,417.868,937.245,417.169,937.245,417.169Zm27.481-17.834V384.641h-2.133v11.386l-7.081-11.386h-2.577v14.695h2.126V388.083l7.046,11.253Zm-24.3,38.9h14.626V433.58H944.995v-7.417h8.836v-4.226h-8.836v-7.5h10.053v-4.574H940.422Z" transform="translate(3793.867 -502.633)" fill="#77787b"/><g transform="translate(4894.3 -67.642)"><path d="M1610.723,541.412c-.022-.6-.045-1.33-.045-2.059h-.022c-.157.639-.364,1.353-.558,1.94l-.609,1.955h-.885l-.535-1.94c-.164-.587-.334-1.3-.454-1.955h-.015c-.03.676-.052,1.449-.09,2.074l-.089,1.9h-1.048l.319-5.01h1.509l.491,1.672c.156.58.312,1.2.423,1.792h.022c.142-.579.312-1.241.476-1.8l.536-1.665h1.479l.275,5.01H1610.8Z" transform="translate(-1606.374 -538.284)" fill="#77787b"/><path d="M1625.752,538.313a10.014,10.014,0,0,1,1.508-.1,2.554,2.554,0,0,1,1.621.394,1.272,1.272,0,0,1,.461,1.048,1.33,1.33,0,0,1-.884,1.234v.022a1.261,1.261,0,0,1,.668.937c.156.565.313,1.219.409,1.412h-1.159a6.242,6.242,0,0,1-.349-1.167c-.134-.624-.349-.795-.811-.8h-.341v1.969h-1.123Zm1.123,2.156h.445c.566,0,.9-.283.9-.721,0-.46-.312-.691-.833-.7a2.767,2.767,0,0,0-.512.037Z" transform="translate(-1619.343 -538.21)" fill="#77787b"/></g></g></svg>