<svg xmlns="http://www.w3.org/2000/svg" width="95" height="70" viewBox="0 0 95 70">
  <g id="Grupo_154" data-name="Grupo 154" transform="translate(-131 -99.138)">
    <path id="Trazado_194" data-name="Trazado 194" d="M219.32,99.138H137.68A6.7,6.7,0,0,0,131,105.85v56.584a6.7,6.7,0,0,0,6.68,6.7H219.32a6.7,6.7,0,0,0,6.68-6.7V105.85a6.7,6.7,0,0,0-6.68-6.712Zm3.509,63.3a3.521,3.521,0,0,1-3.509,3.528H137.68a3.521,3.521,0,0,1-3.509-3.528V105.85a3.515,3.515,0,0,1,3.509-3.526H219.32a3.515,3.515,0,0,1,3.509,3.526Zm0,0" transform="translate(0 0)" fill="#d62624"/>
    <path id="Trazado_195" data-name="Trazado 195" d="M177.136,160.778,171.4,157.8v-.615a11.518,11.518,0,0,0,5.384-6.978,4.771,4.771,0,0,0,2.5-4.217v-1.6a4.789,4.789,0,0,0-1.818-3.753c-.978-6.043-5.144-9.1-12.376-9.1-.339,0-.678.008-1,.038a7.941,7.941,0,0,1-5.09-1.185,6.461,6.461,0,0,1-1.44-1.265,1.865,1.865,0,0,0-2.21-.6,1.9,1.9,0,0,0-1.156,2c.061.593.162,1.289.316,2.052.3,1.563.3,1.563-.124,2.49-.161.352-.361.789-.592,1.367a18.014,18.014,0,0,0-1.11,4.231,4.813,4.813,0,0,0-1.786,3.731v1.6a4.77,4.77,0,0,0,2.5,4.217,11.518,11.518,0,0,0,5.384,6.978v.6l-5.946,2.974a6.839,6.839,0,0,0-3.519,6v2.123c0,1.281,0,4.286,15.773,4.286s15.773-3.006,15.773-4.286V166.9a6.806,6.806,0,0,0-3.728-6.119Zm.57,7.744c-.978.608-4.982,1.451-12.614,1.451s-11.636-.843-12.614-1.451v-1.756a3.625,3.625,0,0,1,1.816-3.169l6.077-3.038a2.832,2.832,0,0,0,1.563-2.536v-2.89l-.954-.414c-2.388-1.045-3.943-3.036-4.752-6.1l-.223-.851-.832-.266a1.6,1.6,0,0,1-1.126-1.515v-1.6a1.6,1.6,0,0,1,.856-1.4l.74-.4.093-.851a15.146,15.146,0,0,1,.978-4.1c.207-.515.384-.907.533-1.227a4.711,4.711,0,0,0,.592-3,11.128,11.128,0,0,0,6.508,1.343c.238-.016.493-.032.747-.032,5.907,0,8.787,2.171,9.349,7.034l.1.836.731.39a1.614,1.614,0,0,1,.864,1.4v1.6a1.6,1.6,0,0,1-1.126,1.515l-.832.266-.223.851c-.809,3.059-2.364,5.05-4.759,6.1l-.947.414v2.9a2.814,2.814,0,0,0,1.516,2.52l5.954,3.084a3.632,3.632,0,0,1,1.985,3.263Zm0,0" transform="translate(-10.432 -16.651)" fill="#d62624"/>
    <path id="Trazado_196" data-name="Trazado 196" d="M238.823,149.915H254.6a1.579,1.579,0,0,0,0-3.158H238.823a1.579,1.579,0,1,0,0,3.158Zm0,0" transform="translate(-60.284 -26.932)" fill="#d62624"/>
    <path id="Trazado_197" data-name="Trazado 197" d="M290.11,149.915h1.579a1.579,1.579,0,1,0,0-3.158H290.11a1.579,1.579,0,0,0,0,3.158Zm0,0" transform="translate(-89.438 -26.932)" fill="#d62624"/>
    <path id="Trazado_198" data-name="Trazado 198" d="M240.4,209.049h-1.579a1.579,1.579,0,1,0,0,3.159H240.4a1.579,1.579,0,0,0,0-3.159Zm0,0" transform="translate(-60.319 -62.163)" fill="#d62624"/>
    <path id="Trazado_199" data-name="Trazado 199" d="M260.3,209.049h-3.159a1.579,1.579,0,0,0,0,3.159H260.3a1.579,1.579,0,0,0,0-3.159Zm0,0" transform="translate(-70.716 -62.163)" fill="#d62624"/>
    <path id="Trazado_200" data-name="Trazado 200" d="M280.707,209.049h-1.579a1.579,1.579,0,0,0,0,3.159h1.579a1.579,1.579,0,0,0,0-3.159Zm0,0" transform="translate(-83.203 -62.163)" fill="#d62624"/>
    <path id="Trazado_201" data-name="Trazado 201" d="M300.595,209.049h-3.148a1.579,1.579,0,1,0,0,3.159h3.148a1.579,1.579,0,0,0,0-3.159Zm0,0" transform="translate(-93.598 -62.163)" fill="#d62624"/>
    <path id="Trazado_202" data-name="Trazado 202" d="M318.308,209.529a1.676,1.676,0,0,0-.454,1.126,1.574,1.574,0,1,0,3.149,0,1.575,1.575,0,0,0-2.7-1.126Zm0,0" transform="translate(-106.048 -62.189)" fill="#d62624"/>
    <path id="Trazado_203" data-name="Trazado 203" d="M273.526,168.744h-34.7a1.579,1.579,0,1,0,0,3.158h34.7a1.579,1.579,0,0,0,0-3.158Zm0,0" transform="translate(-60.141 -39.367)" fill="#d62624"/>
    <path id="Trazado_204" data-name="Trazado 204" d="M273.526,190.73h-34.7a1.579,1.579,0,1,0,0,3.159h34.7a1.579,1.579,0,0,0,0-3.159Zm0,0" transform="translate(-60.141 -51.802)" fill="#d62624"/>
  </g>
</svg>
