<svg xmlns="http://www.w3.org/2000/svg" width="102" height="102" viewBox="0 0 102 102">
  <g id="Grupo_155" data-name="Grupo 155" transform="translate(-199.852 -199.496)">
    <path id="Trazado_205" data-name="Trazado 205" d="M250.853,199.5a51,51,0,1,0,51,51,51.058,51.058,0,0,0-51-51Zm0,96.486A45.478,45.478,0,1,1,296.338,250.5a45.342,45.342,0,0,1-45.485,45.485Zm0,0" fill="#d62624"/>
    <path id="Trazado_206" data-name="Trazado 206" d="M307.293,329.182a18.626,18.626,0,0,1,12.528,2.738l2.9-4.563a24.009,24.009,0,0,0-35.711,12.8l5.137,1.682a18.756,18.756,0,0,1,15.148-12.657Zm0,0" transform="translate(-46.674 -66.835)" fill="#d62624"/>
    <path id="Trazado_207" data-name="Trazado 207" d="M272.663,279.9a5.405,5.405,0,1,1-5.405-5.405,5.407,5.407,0,0,1,5.405,5.405Zm0,0" transform="translate(-33.445 -40.458)" fill="#d62624"/>
    <path id="Trazado_208" data-name="Trazado 208" d="M346.913,279.9a5.405,5.405,0,1,1-5.405-5.405,5.407,5.407,0,0,1,5.405,5.405Zm0,0" transform="translate(-73.499 -40.458)" fill="#d62624"/>
  </g>
</svg>
