<svg xmlns="http://www.w3.org/2000/svg" width="102" height="102" viewBox="0 0 102 102">
  <g id="Grupo_153" data-name="Grupo 153" transform="translate(-195 -285)">
    <path id="Trazado_190" data-name="Trazado 190" d="M246,285a51,51,0,1,0,51,51,51.058,51.058,0,0,0-51-51Zm0,96.486A45.478,45.478,0,1,1,291.486,336,45.342,45.342,0,0,1,246,381.486Zm0,0" fill="#d62624"/>
    <path id="Trazado_191" data-name="Trazado 191" d="M258.36,364.878c3.81,0,6.909,2.5,6.909,5.923h7.089c0-6.837-6.279-12-14-12s-14,5.163-14,12h7.089c0-3.418,3.1-5.923,6.912-5.923Zm0,0" transform="translate(-28.659 -41.194)" fill="#d62624"/>
    <path id="Trazado_192" data-name="Trazado 192" d="M334.241,364.878c3.81,0,6.911,2.5,6.911,5.923h7.089c0-6.837-6.282-12-14-12s-14,5.163-14,12h7.089c0-3.418,3.1-5.923,6.91-5.923Zm0,0" transform="translate(-72.719 -41.194)" fill="#d62624"/>
    <path id="Trazado_193" data-name="Trazado 193" d="M274.288,442.53c10.559,0,20.68-7.208,26.474-19.178l-4.584-3.954c-5.32,10.991-15.056,17.125-24.8,15.623-7.594-1.169-14.618-7.009-18.788-15.623l-4.584,3.954c5.046,10.424,13.548,17.492,22.746,18.908a23.051,23.051,0,0,0,3.534.27Zm0,0" transform="translate(-28.385 -76.759)" fill="#d62624"/>
  </g>
</svg>
