<svg xmlns="http://www.w3.org/2000/svg" width="64" height="80" viewBox="0 0 64 80">
  <g id="Grupo_151" data-name="Grupo 151" transform="translate(-162 -217)">
    <path id="Trazado_186" data-name="Trazado 186" d="M193.983,217A32.068,32.068,0,0,0,162,249.067a31.7,31.7,0,0,0,.569,6.021c.016.118.084.47.218,1.074a31.652,31.652,0,0,0,2.14,6.322c3.447,8.134,11.024,20.629,27.651,34.013a2.261,2.261,0,0,0,2.844,0c16.611-13.384,24.2-25.879,27.651-34.013a31.3,31.3,0,0,0,2.14-6.322c.134-.6.2-.956.218-1.074a33.1,33.1,0,0,0,.569-6.021A32.118,32.118,0,0,0,193.983,217Zm26.964,37.3c0,.033-.017.067-.017.1-.016.084-.067.335-.151.722v.033a26.665,26.665,0,0,1-1.857,5.467c-.016.017-.016.051-.033.067-3.129,7.43-9.987,18.768-24.907,31.128-14.922-12.36-21.78-23.7-24.907-31.128-.017-.017-.017-.051-.033-.067a28.5,28.5,0,0,1-1.858-5.467v-.033c-.1-.386-.133-.638-.15-.722,0-.033-.018-.067-.018-.117a27.465,27.465,0,1,1,53.929.017Zm0,0" transform="translate(0)" fill="#d62624"/>
    <path id="Trazado_187" data-name="Trazado 187" d="M234.621,270.926A20.373,20.373,0,1,0,254.891,291.3a20.353,20.353,0,0,0-20.269-20.373Zm0,36.214A15.842,15.842,0,1,1,250.383,291.3a15.82,15.82,0,0,1-15.761,15.841Zm0,0" transform="translate(-40.638 -41.987)" fill="#d62624"/>
  </g>
</svg>
