<svg xmlns="http://www.w3.org/2000/svg" width="70" height="70" viewBox="0 0 70 70">
  <g id="Grupo_150" data-name="Grupo 150" transform="translate(323 -60)">
    <path id="Trazado_184" data-name="Trazado 184" d="M-174.072,117.856a10.94,10.94,0,0,0,10.928-10.928A10.94,10.94,0,0,0-174.072,96,10.94,10.94,0,0,0-185,106.928a10.94,10.94,0,0,0,10.928,10.928Zm0-19.67a8.753,8.753,0,0,1,8.742,8.742,8.753,8.753,0,0,1-8.742,8.742,8.753,8.753,0,0,1-8.742-8.742,8.753,8.753,0,0,1,8.742-8.742Zm0,0" transform="translate(-111.635 -29.443)" fill="#d62624"/>
    <path id="Trazado_185" data-name="Trazado 185" d="M-256.855,106.29l-5.645,5.645h-9.694v-2.258h2.862l5.041-7.562V97.258h-6.193l-3.028-4.238,2.915-4.485a18.024,18.024,0,0,0,2.919-9.845v-.625A18.085,18.085,0,0,0-285.742,60a18.085,18.085,0,0,0-18.065,18.065v.625a18.012,18.012,0,0,0,2.085,8.407h-4.051l-10.161-5.645H-323v8.169l2.258,4.516v6.849l2.258,3.387v3.387l2.69,4.034,4.084,1.023v1.642l2.69,5.379h5.214v-8.245l-9.032-13.548V95.467l1.074-1.074,14.733,16.838v7.082l21.393,9.509,3.311-1.1,5.468,3.282h5.958v-3.653l-1.129-2.258V122.1h6.774v-3.121L-253,114.46V106.29Zm-44.694-28.226a15.824,15.824,0,0,1,15.806-15.806,15.824,15.824,0,0,1,15.806,15.806v.625a15.758,15.758,0,0,1-2.555,8.615l-10.71,16.478a3.023,3.023,0,0,1-2.542,1.378,3.021,3.021,0,0,1-2.542-1.38L-298.993,87.3a15.754,15.754,0,0,1-2.555-8.613Zm46.29,35.863-2.258,4.516v1.4h-6.774v4.782l1.129,2.258v.863h-3.075l-5.822-3.493-3.464,1.153-19.252-8.554v-6.466l-16.88-19.291-3.442,3.442v4.2l9.032,13.548v5.3h-1.56l-1.827-3.653v-2.874l-4.948-1.236-1.826-2.739v-3.387l-2.258-3.387V93.6l-2.258-4.516V83.71h4.224l10.161,5.645h6l10.177,15.657a5.271,5.271,0,0,0,4.436,2.407,5.271,5.271,0,0,0,4.436-2.407l6.474-9.959,3.186,4.463h5.1v1.916l-3.991,5.987h-3.912v6.774h12.887l5.645-5.645h.662Zm0,0" transform="translate(0 0)" fill="#d62624"/>
  </g>
</svg>
