<svg xmlns="http://www.w3.org/2000/svg" width="102" height="102" viewBox="0 0 102 102">
  <g id="Grupo_152" data-name="Grupo 152" transform="translate(-114 -204)">
    <path id="Trazado_188" data-name="Trazado 188" d="M201.063,218.937A51,51,0,1,0,216,255a50.671,50.671,0,0,0-14.937-36.063ZM165,300.023A45.023,45.023,0,1,1,210.023,255,45.075,45.075,0,0,1,165,300.023Zm0,0" fill="#d62624"/>
    <path id="Trazado_189" data-name="Trazado 189" d="M260.583,331.977a2.99,2.99,0,0,0-4.226,0l-26.388,26.388-13.891-13.89a2.988,2.988,0,0,0-4.226,4.226l16,16a2.988,2.988,0,0,0,4.226,0l28.5-28.5a2.989,2.989,0,0,0,0-4.226Zm0,0" transform="translate(-71.217 -93.34)" fill="#d62624"/>
  </g>
</svg>
